<svg width="127" height="36" viewBox="0 0 127 36" fill="none" xmlns="http://www.w3.org/2000/svg">
<path d="M18.1702 33.6608C27.4654 33.6608 35.0006 26.1256 35.0006 16.8304C35.0006 7.53522 27.4654 0 18.1702 0C8.87506 0 1.33984 7.53522 1.33984 16.8304C1.33984 26.1256 8.87506 33.6608 18.1702 33.6608Z" fill="currentColor"/>
<path d="M15.5195 34.3507L12 32.9998L21.1833 17.2937L23.177 21.2811L15.5195 34.3507Z" fill="white"/>
<path d="M22 35.5005L18 34.0005L24.7995 23.6929L27.025 27.3093L22 35.5005Z" fill="white"/>
<path d="M23.177 14.6974L21.276 5.14624L17.5669 11.2664L9.2212 25.0831C8.71119 25.9176 8.10845 26.474 7.36662 26.7058C6.62478 26.9377 5.88295 26.8449 5.04838 26.3349C4.26018 25.8249 3.79653 25.2222 3.65744 24.4803C3.56471 23.7385 3.75017 22.9503 4.21382 22.0694L1.3392 20.5393C0.31918 22.2548 -0.283561 23.5067 0.133722 25.1294C0.551004 26.7522 1.61739 28.0968 3.33289 29.1168C5.04838 30.1368 6.71751 30.4614 8.34027 30.0905C9.96304 29.7195 11.3076 28.6995 12.374 26.984L20.7197 13.1673L23.177 14.6974Z" fill="white"/>
<path d="M62.3194 19.4812C61.5539 19.3204 59.2665 18.7484 57.0506 20.2498C57.0461 20.2498 57.0461 20.2498 57.0417 20.2453C56.8268 20.3838 56.603 20.5134 56.3657 20.6251C55.6719 20.9513 54.9243 21.1167 54.123 21.1167C53.3217 21.1167 52.5742 20.9513 51.8803 20.6251C51.1865 20.2989 50.5777 19.8566 50.0584 19.3069C49.5391 18.7529 49.1273 18.1183 48.8229 17.3989C48.5185 16.6795 48.3663 15.9199 48.3663 15.12C48.3663 14.3381 48.5185 13.5784 48.8229 12.8546C49.1273 12.1262 49.5391 11.4917 50.0584 10.9465C50.5777 10.4014 51.1865 9.96795 51.8803 9.63729C52.5742 9.3111 53.3217 9.14577 54.123 9.14577C54.9243 9.14577 55.6719 9.3111 56.3657 9.63729C57.0596 9.96349 57.6684 10.4014 58.1876 10.9465C58.7069 11.4917 59.1187 12.1262 59.4231 12.8546C59.7275 13.5829 59.8797 14.3381 59.8797 15.12C59.8797 15.9199 59.7275 16.6795 59.4231 17.3989C59.3828 17.4972 59.3336 17.5911 59.2888 17.6849C60.3095 17.5911 61.5181 17.6045 62.8252 17.8681C63.1028 16.9968 63.246 16.0852 63.246 15.12C63.246 13.8734 63.0043 12.6937 62.5253 11.5811C62.0463 10.4684 61.3928 9.50324 60.5646 8.67658C59.741 7.85439 58.774 7.202 57.6684 6.71942C56.5627 6.24129 55.3764 6 54.1096 6C52.8606 6 51.6833 6.24129 50.5777 6.71942C49.472 7.202 48.5051 7.84992 47.6814 8.67658C46.8577 9.49877 46.2042 10.4684 45.7207 11.5811C45.2417 12.6892 45 13.8689 45 15.1156C45 16.3801 45.2417 17.5643 45.7207 18.668C46.1997 19.7717 46.8533 20.7368 47.6814 21.559C48.5051 22.3812 49.472 23.0336 50.5777 23.5162C51.6833 23.9943 52.8606 24.2356 54.1096 24.2356C55.3764 24.2356 56.5627 23.9943 57.6684 23.5162C57.9907 23.3777 58.2951 23.2168 58.595 23.047C58.6308 23.0336 58.6711 23.0202 58.6979 23.0068C59.3918 22.6806 59.8529 22.4885 60.6497 22.5153C62.203 22.5689 62.5566 23.3241 62.6417 23.9407H66.5228C66.5183 22.8817 65.6141 20.1738 62.3194 19.4812Z" fill="currentColor"/>
<path d="M79.3016 10.9031H76.0427V18.2447H76.0472C76.0472 19.7595 74.8162 20.9838 73.3031 20.9838C71.7856 20.9838 70.5591 19.755 70.5591 18.2447H70.5635V10.9031H67.3047V18.2447C67.3047 21.5513 69.9906 24.2368 73.3076 24.2368C76.6247 24.2368 79.3105 21.5558 79.3105 18.2447V10.9031H79.3016Z" fill="currentColor"/>
<path d="M123.739 10.9041V15.2832C123.739 16.092 123.376 16.8114 122.816 17.3118C122.821 17.3118 122.821 17.3118 122.825 17.3118C124.549 17.5665 125.829 18.773 125.847 18.7909C126.568 17.8034 126.997 16.5924 126.997 15.2787V10.8997H123.739V10.9041Z" fill="currentColor"/>
<path d="M126.996 24.0052C126.996 24.0007 126.996 23.9963 126.996 23.9873V23.965C126.987 22.2581 126.257 20.7254 125.098 19.6396C125.098 19.6396 125.102 19.6396 125.102 19.6351C124.596 19.1793 123.482 18.1069 120.993 18.0175C119.48 17.9639 118.253 16.7932 118.249 15.2829H118.253V10.9038H114.994V15.265C114.994 15.2695 114.994 15.2739 114.994 15.2739C114.994 18.5225 117.586 21.1588 120.814 21.2571C120.85 21.2571 121.024 21.2661 121.033 21.2661C122.519 21.2884 123.714 22.4815 123.737 23.965V25.5736H123.741V25.5781C123.741 27.0929 122.51 28.3172 120.997 28.3172C119.48 28.3172 118.253 27.0884 118.253 25.5781C118.253 25.5736 118.253 24.747 118.253 24.7425C118.253 24.7425 114.994 24.7514 114.994 24.7604C114.605 28.8088 117.68 31.5702 120.997 31.5702C124.314 31.5702 127 28.8892 127 25.5781C127 25.5736 127 25.5736 127 25.5692V24.0097C126.996 24.0141 126.996 24.0097 126.996 24.0052Z" fill="currentColor"/>
<path d="M91.9282 26.1981C91.776 26.6986 91.5477 27.1499 91.2433 27.5431C90.9389 27.9363 90.5539 28.2625 90.0839 28.5127C89.6183 28.763 89.0588 28.8881 88.4142 28.8881C87.7696 28.8881 87.21 28.763 86.7445 28.5127C86.2789 28.2625 85.8939 27.9408 85.5851 27.5431C85.2807 27.1499 85.0524 26.703 84.9002 26.1981C84.7524 25.72 84.6808 25.2374 84.6763 24.7593H81.3906C81.3996 25.7557 81.5786 26.6673 81.9412 27.4895C82.3083 28.334 82.8052 29.0534 83.4364 29.6522C84.0631 30.251 84.8106 30.7246 85.6701 31.0642C86.5341 31.4038 87.4473 31.5736 88.4187 31.5736C89.39 31.5736 90.3032 31.4038 91.1672 31.0642C92.0312 30.7246 92.7742 30.2554 93.4009 29.6522C94.0276 29.0534 94.529 28.3295 94.8961 27.4895C95.2542 26.6673 95.4377 25.7557 95.4467 24.7593H92.161C92.1431 25.2374 92.0714 25.7155 91.9282 26.1981Z" fill="currentColor"/>
<path d="M96.9877 10.9969C92.1576 10.9388 91.8577 15.4429 92.0592 16.3768H92.0457C92.1084 16.703 92.1532 17.0248 92.1532 17.3554C92.1532 17.8559 92.0771 18.3608 91.9249 18.8613C91.7727 19.3617 91.5444 19.813 91.24 20.2063C90.9356 20.5995 90.5506 20.9257 90.0806 21.1759C89.615 21.4261 89.0554 21.5513 88.4108 21.5513C87.7662 21.5513 87.2067 21.4261 86.7411 21.1759C86.2756 20.9257 85.8906 20.604 85.5817 20.2063C85.2773 19.813 85.049 19.3662 84.8968 18.8613C84.7446 18.3608 84.6685 17.8559 84.6685 17.3554C84.6685 16.855 84.7446 16.3545 84.8968 15.863C85.049 15.3714 85.2773 14.9291 85.5817 14.5314C85.8861 14.1382 86.2711 13.8209 86.7411 13.5751C87.2067 13.3338 87.7662 13.2132 88.4108 13.2132C89.0554 13.2132 89.615 13.3338 90.0806 13.5751C90.4521 13.7673 90.7565 14.022 91.0206 14.308C91.0296 14.2633 91.034 14.2141 91.0475 14.1694C91.2176 13.4634 91.5041 12.8378 91.9114 12.3016C92.0726 12.0872 92.2606 11.895 92.462 11.7163C92.0636 11.4616 91.6294 11.2426 91.1594 11.0639C90.2999 10.7422 89.3822 10.5813 88.4108 10.5813C87.4395 10.5813 86.5263 10.7422 85.6623 11.0639C84.7983 11.3856 84.0553 11.8414 83.4286 12.4357C82.8018 13.0255 82.3005 13.7405 81.9334 14.5716C81.5663 15.4072 81.3828 16.3322 81.3828 17.3554C81.3828 18.3787 81.5663 19.3081 81.9334 20.1526C82.3005 20.9972 82.7974 21.7166 83.4286 22.3154C84.0553 22.9141 84.8028 23.3878 85.6623 23.7274C86.5263 24.067 87.4395 24.2368 88.4108 24.2368C89.3822 24.2368 90.2954 24.067 91.1594 23.7274C92.0233 23.3878 92.7664 22.9186 93.3931 22.3154C94.0198 21.7166 94.5212 20.9927 94.8883 20.1526C95.2553 19.3126 95.4389 18.3787 95.4389 17.3554C95.4389 17.1811 95.4254 17.0114 95.4165 16.8371L95.4344 16.8416V16.6628C95.4344 16.3411 95.4613 16.0104 95.515 15.6664C95.5687 15.3268 95.6716 15.014 95.8238 14.7235C95.976 14.4375 96.1954 14.2052 96.4819 14.0264C96.7505 13.8611 97.1041 13.7762 97.5294 13.7673H99.0648V10.9969H96.9877Z" fill="currentColor"/>
<path d="M112.958 14.5044C112.645 13.6375 112.211 12.9136 111.656 12.3327C111.101 11.7519 110.443 11.3139 109.682 11.019C108.921 10.7241 108.092 10.5767 107.197 10.5767C106.23 10.5767 105.33 10.742 104.498 11.0727C103.665 11.4033 102.944 11.868 102.336 12.4668C101.727 13.0656 101.248 13.7895 100.899 14.6385C100.55 15.4875 100.375 16.4303 100.375 17.467C100.375 18.5215 100.55 19.4643 100.899 20.2955C101.248 21.1266 101.731 21.8281 102.349 22.4001C102.967 22.972 103.697 23.4144 104.538 23.7272C105.38 24.04 106.302 24.1964 107.305 24.1964C108.943 24.1964 110.707 23.7361 112.269 22.3688L110.51 20.291C110.228 20.5814 109.462 21.0506 109.319 21.1266C108.764 21.4215 108.083 21.569 107.278 21.569C106.812 21.569 106.364 21.4885 105.935 21.3277C105.505 21.1668 105.12 20.9479 104.78 20.6708C104.44 20.3938 104.167 20.0631 103.961 19.6788C103.755 19.2945 103.634 18.87 103.598 18.4053C103.482 17.1542 103.598 16.0996 103.598 16.0996C103.67 15.1881 104.041 14.4418 104.713 13.8609C105.384 13.2801 106.203 12.9896 107.17 12.9896C107.69 12.9896 108.142 13.0745 108.527 13.2443C108.912 13.4141 109.229 13.642 109.48 13.928C109.731 14.214 109.914 14.5446 110.031 14.92C110.147 15.2953 110.205 15.6885 110.205 16.0996H104.704V18.4053H113.401C113.419 18.2623 113.428 18.1193 113.428 17.9764C113.428 17.8334 113.428 17.6904 113.428 17.5474C113.428 16.3856 113.272 15.3713 112.958 14.5044Z" fill="currentColor"/>
</svg>