<svg width="94" height="37" viewBox="0 0 94 37" fill="none" xmlns="http://www.w3.org/2000/svg">
<path fill-rule="evenodd" clip-rule="evenodd" d="M11.9594 32.5776C9.7658 27.2567 19.5794 18.3065 33.8805 12.584C40.371 9.98884 46.6657 8.503 51.816 8.15664C46.1236 7.69483 37.9716 9.21078 29.4933 12.6543C15.1921 18.4621 5.37857 27.5478 7.57219 32.949C8.97771 36.4126 14.9813 37.522 22.8773 36.3423C17.2 36.5682 13.0889 35.3233 11.9594 32.5776Z" fill="#545454"/>
<path fill-rule="evenodd" clip-rule="evenodd" d="M16.4446 32.3069C14.4417 27.242 23.4069 18.7286 36.4682 13.2872C39.3847 12.0724 42.256 11.1137 44.9817 10.4159C41.6084 11.0986 37.9541 12.1879 34.2244 13.6787C21.1631 18.9043 12.1929 27.0764 14.1958 31.9405C14.9286 33.7174 17.0319 34.8067 20.0437 35.2183C18.2366 34.621 16.9767 33.6522 16.4446 32.3069ZM11.6859 21.9663C10.5113 23.0505 9.11079 24.5213 8.02653 26.1628L9.17604 20.7866L0 12.5443L12.2682 11.2743L17.2678 0L22.2675 11.2743L28.1456 11.8817C22.3679 14.3263 16.2538 17.7347 11.6859 21.9663Z" fill="currentColor"/>
<path fill-rule="evenodd" clip-rule="evenodd" d="M24.6439 13.4685C17.4356 15.4864 11.2111 18.2623 8.30469 25.7568C9.34377 24.276 10.6138 22.9608 11.688 21.9669C15.3373 18.5836 19.9755 15.7274 24.6439 13.4685Z" fill="#545454"/>
<path fill-rule="evenodd" clip-rule="evenodd" d="M39.2265 17C35.4206 17 31.8711 19.1795 31.8711 23.1134C31.8711 25.7179 33.8129 26.9468 37.1605 27.8046C38.978 28.2838 39.677 29.0567 39.677 29.8373C39.677 30.9425 38.543 31.6921 37.1605 31.6921C35.8012 31.6921 34.5663 30.9888 34.5663 29.3581H30.0381C29.6342 33.2456 32.4847 35 36.6867 35C40.7411 35 44.547 32.9674 44.547 28.933C44.547 26.7535 43.1877 25.0996 40.011 24.319C37.5411 23.7162 36.7333 23.067 36.7333 22.1395C36.7333 20.9339 37.6187 20.3079 38.7993 20.3079C40.2828 20.3079 40.8654 21.2585 40.8188 22.6883H45.3548C45.5256 19.4809 43.8169 17 39.2265 17ZM94 21.2585C94 18.8008 92.1825 17.7265 89.9922 17.4714C89.0834 17.371 88.3766 17.3478 87.297 17.3478H80.3921L79.7707 20.8566H84.2989H85.8601H86.062C86.5436 20.8566 86.9475 20.8566 87.2737 20.8798C88.2834 20.9571 89.0601 21.3049 89.0601 22.4332C89.0601 24.1876 87.8019 24.69 86.4659 24.7905C86.2873 24.8059 86.0853 24.8137 85.8601 24.8137C85.6737 24.8137 85.4717 24.8137 85.2543 24.8137H83.5921H79.0639L77.3163 34.6445H81.8523L83.0096 28.0751H84.0426C84.5475 28.0751 84.9513 28.0751 85.4562 28.0983C86.5125 28.1756 87.0718 29.1494 87.0718 30.8033C87.0718 32.7819 87.1261 33.7093 87.2504 34.6368H92.1903C91.8097 33.8098 91.6077 32.7355 91.6077 31.3057C91.6077 28.5698 91.1029 27.0936 89.5417 26.4135C92.4621 25.6715 94 23.8939 94 21.2585ZM70.3958 30.1619L71.0483 34.6522H75.9881L72.9357 17.3555H67.0637L57.8986 34.6445H62.7142C64.8734 30.2778 67.0094 25.9034 69.1609 21.5367L69.891 26.6531H67.9026L66.1938 30.1619H70.3958ZM62.2326 20.8566H56.617L54.1704 34.6445H49.6344L52.081 20.8566H46.4111L47.0635 17.3478H62.8851L62.2326 20.8566Z" fill="currentColor"/>
</svg>