<svg width="163" height="34" viewBox="0 0 163 34" fill="none" xmlns="http://www.w3.org/2000/svg">
<g opacity="0.2">
<path d="M7.24232 22.1151C8.01659 21.3409 9.02313 20.915 10.0297 20.7989C8.71343 20.6828 7.39717 21.1086 6.39062 22.1151L8.79085 24.5154C8.94571 24.3605 9.10056 24.2444 9.25541 24.0895L7.24232 22.1151Z" fill="black"/>
</g>
<path d="M12.8131 22.115C13.0454 22.3473 13.239 22.5796 13.3938 22.8506C11.7292 22.6957 10.0258 23.2377 8.78695 24.5152L6.38672 22.115C8.16753 20.3342 11.0323 20.3342 12.8131 22.115ZM36.5831 12.4754L24.8143 0.667805C23.9239 -0.222602 22.4528 -0.222602 21.5624 0.667805L19.1621 3.06803L29.305 13.2109C30.6987 14.6046 30.6987 16.85 29.305 18.205L18.6589 28.8511C18.5814 30.2448 18.0394 31.5998 16.9942 32.6837L18.3104 34L36.6218 15.6886C37.4735 14.7982 37.4735 13.3658 36.5831 12.4754Z" fill="currentColor"/>
<path d="M17.7665 32.6829C18.8117 31.6376 19.3924 30.244 19.4311 28.8503L30.116 18.2041C31.5097 16.8104 31.5097 14.5651 30.116 13.2101L19.9731 3.06719L22.3733 0.666964C22.7218 0.318544 23.1476 0.124977 23.5735 0.0475503C22.8766 -0.0685898 22.1023 0.124977 21.5604 0.666964L19.1601 3.06719L29.303 13.2101C30.6967 14.6038 30.6967 16.8491 29.303 18.2041L18.6569 28.8503C18.5794 30.244 18.0374 31.5989 16.9922 32.6829L18.3084 33.9992L18.7343 33.5733L17.7665 32.6829Z" fill="#545454"/>
<path d="M28.4156 14.101L18.3114 3.95807L16.6467 2.33211C15.7563 1.4417 14.2852 1.4417 13.3948 2.33211L0 15.7269L3.29063 18.9789L5.53601 21.2242C7.78138 18.9789 11.4592 18.9789 13.7045 21.2242C14.2852 21.8049 14.7111 22.5018 14.9821 23.1986C15.795 25.2891 15.3692 27.7281 13.7045 29.3927L15.0208 30.709L18.505 27.2248L28.4156 17.3142C29.306 16.4238 29.306 14.9914 28.4156 14.101Z" fill="currentColor"/>
<path d="M14.4403 29.3908C16.105 27.7261 16.5308 25.2484 15.7179 23.1966C15.4469 22.4611 15.021 21.803 14.4403 21.2223C13.2015 19.9834 11.5755 19.4414 9.98828 19.5576C11.3432 19.635 12.6595 20.2157 13.7048 21.2223C14.2855 21.803 14.7113 22.4998 14.9823 23.1966C15.7953 25.2872 15.3694 27.7261 13.7048 29.3908L15.021 30.707L15.4081 30.3199L14.4403 29.3908Z" fill="#545454"/>
<path d="M4.02619 18.9776L0.735554 15.687L14.1304 2.3309C14.4788 1.98248 14.9046 1.7502 15.3692 1.67277C14.6724 1.55663 13.9368 1.78891 13.3948 2.3309L0 15.7257L3.29063 18.9776L5.53601 21.223C5.65215 21.1069 5.807 20.9907 5.92314 20.8746L4.02619 18.9776Z" fill="#545454"/>
<path d="M118.344 15.5337V25.1101H115.164V9.01831L126.437 18.7455V9.01831H129.617V25.1101L118.344 15.5337Z" fill="currentColor"/>
<path d="M162.678 18.5699C162.462 18.0783 162.171 17.6719 161.812 17.3376C161.453 17.0033 161.054 16.728 160.594 16.5183C160.141 16.3085 159.681 16.1381 159.221 16.007C158.76 15.8759 158.314 15.7776 157.881 15.712C157.448 15.6399 157.076 15.5678 156.758 15.5023C156.331 15.404 155.891 15.3056 155.438 15.2073C154.985 15.109 154.565 14.9845 154.186 14.8468C153.807 14.7026 153.496 14.5256 153.253 14.3159C153.009 14.1061 152.887 13.8439 152.887 13.5293C152.887 13.2147 152.989 12.9525 153.192 12.7296C153.395 12.5068 153.652 12.3298 153.963 12.1856C154.274 12.0414 154.606 11.9431 154.951 11.8775C155.296 11.812 155.607 11.7792 155.885 11.7792C155.993 11.7792 156.094 11.7726 156.196 11.7792H162.211V9H156.196C156.135 9 156.081 9 156.02 9C155.323 9 154.599 9.0721 153.848 9.20975C153.097 9.35395 152.414 9.59648 151.805 9.94388C151.189 10.2913 150.688 10.7698 150.296 11.3663C149.903 11.9693 149.707 12.7231 149.707 13.6342C149.707 14.2569 149.815 14.8009 150.039 15.2597C150.255 15.7186 150.553 16.1184 150.911 16.4527C151.277 16.787 151.683 17.0623 152.136 17.2852C152.59 17.508 153.05 17.685 153.523 17.8161C153.99 17.9537 154.45 18.0586 154.883 18.1373C155.323 18.2159 155.709 18.2815 156.04 18.3405C156.541 18.4257 157.021 18.5174 157.482 18.6158C157.942 18.7141 158.348 18.8386 158.686 18.9763C159.024 19.1205 159.302 19.2975 159.505 19.5203C159.708 19.7432 159.809 20.0054 159.809 20.32C159.809 20.5625 159.742 20.805 159.606 21.0541C159.471 21.3032 159.268 21.5195 158.99 21.7161C158.72 21.9062 158.382 22.0635 157.989 22.1815C157.597 22.2995 157.143 22.3454 156.629 22.3454C156.555 22.3454 156.426 22.3454 156.345 22.3454C156.297 22.3454 156.264 22.3454 156.264 22.3454H150.33V25.1115H156.237C156.372 25.1115 156.528 25.1115 156.67 25.1115C157.61 25.1115 158.463 25.0132 159.234 24.8165C160.005 24.6199 160.675 24.3249 161.23 23.9316C161.792 23.5383 162.225 23.0467 162.523 22.4503C162.827 21.8538 162.976 21.1524 162.976 20.3462C163.003 19.6514 162.895 19.0549 162.678 18.5699Z" fill="currentColor"/>
<path d="M59.9644 18.5699C59.7478 18.0783 59.4569 17.6719 59.0983 17.3376C58.7396 17.0033 58.3404 16.728 57.8803 16.5183C57.427 16.3085 56.9669 16.1381 56.5067 16.007C56.0466 15.8759 55.6001 15.7776 55.167 15.712C54.734 15.6399 54.3618 15.5678 54.0438 15.5023C53.6175 15.404 53.1777 15.3056 52.7243 15.2073C52.271 15.0959 51.8515 14.9713 51.4793 14.8337C51.1004 14.6895 50.7892 14.5125 50.5456 14.3028C50.302 14.093 50.1802 13.8308 50.1802 13.5162C50.1802 13.2016 50.2817 12.9394 50.4847 12.7165C50.6877 12.4937 50.9448 12.3167 51.256 12.1725C51.5673 12.0283 51.8989 11.93 52.2439 11.8644C52.589 11.7989 52.9003 11.7661 53.1777 11.7661C53.286 11.7661 53.3875 11.7595 53.4889 11.7661H59.5042V9H53.4957C53.4348 9 53.3807 9 53.3198 9C52.6229 9 51.8989 9.0721 51.1478 9.20975C50.3967 9.35395 49.7133 9.60303 49.1043 9.95043C48.4886 10.2978 47.9811 10.7698 47.5887 11.3728C47.1962 11.9758 47 12.7296 47 13.6407C47 14.2634 47.1083 14.8075 47.3316 15.2663C47.5481 15.7251 47.8458 16.125 48.2044 16.4593C48.5698 16.7936 48.9758 17.0688 49.4291 17.2917C49.8825 17.5146 50.3426 17.6915 50.8162 17.8226C51.2831 17.9603 51.7432 18.0652 52.1763 18.1438C52.6161 18.2225 53.0018 18.288 53.3333 18.347C53.834 18.4322 54.3144 18.524 54.7746 18.6223C55.2347 18.7206 55.6407 18.8452 55.979 18.9828C56.3173 19.127 56.5947 19.304 56.7977 19.5269C57.0007 19.7497 57.1022 20.0119 57.1022 20.3265C57.1022 20.5691 57.0345 20.8116 56.8992 21.0607C56.7639 21.3097 56.5609 21.5261 56.2835 21.7227C56.0128 21.9128 55.6745 22.0701 55.282 22.1881C54.8896 22.3061 54.4362 22.3519 53.922 22.3519C53.8476 22.3519 53.719 22.3519 53.6378 22.3519C53.5904 22.3519 53.5566 22.3519 53.5566 22.3519H47.636V25.118H53.5431C53.6784 25.118 53.834 25.118 53.9761 25.118C54.9167 25.118 55.7692 25.0197 56.5406 24.8231C57.3119 24.6264 57.9818 24.3315 58.5367 23.9382C59.0983 23.5449 59.5313 23.0533 59.829 22.4568C60.1335 21.8603 60.2824 21.159 60.2824 20.3528C60.2891 19.6514 60.1809 19.0549 59.9644 18.5699Z" fill="currentColor"/>
<path d="M94.9297 25.1101L103.99 9.01831L113.05 25.1101H109.552L104.003 15.4288L98.455 25.1101H94.9297Z" fill="currentColor"/>
<path d="M98.0578 9.01831L88.9977 25.1101L79.9375 9.01831H83.4357L88.9841 18.6996L94.5326 9.01831H98.0578Z" fill="currentColor"/>
<path d="M77.4867 9H62.5195V25.1115H77.4867V22.3388H65.6997V11.7268H77.4867V9Z" fill="currentColor"/>
<path d="M75.5638 18.5224L72.0182 15.5859L68.4727 18.5224H75.5638Z" fill="currentColor"/>
<path d="M147.741 9H132.773V25.1115H147.741V22.3388H135.954V11.7268H147.741V9Z" fill="currentColor"/>
<path d="M145.818 18.5224L142.272 15.5859L138.727 18.5224H145.818Z" fill="currentColor"/>
</svg>