<svg width="133" height="29" viewBox="0 0 133 29" fill="none" xmlns="http://www.w3.org/2000/svg">
<path d="M47.3487 6.89513C47.377 6.782 47.4901 6.782 47.4901 6.782C47.4901 6.782 50.2327 5.96179 53.7386 6.07492C57.3011 6.18805 60.072 7.99816 59.4782 11.4204C59.0541 13.9093 56.9053 17.4447 50.6568 17.1901L50.4589 18.3214C49.9499 22.0265 51.7312 21.2346 51.3636 21.8851C50.9113 22.7336 49.2714 23.78 47.886 23.78C45.9916 23.78 44.5779 22.5922 45.1151 19.679L47.3487 6.89513ZM52.1553 8.62039L51.0526 14.8144C52.9187 14.8144 54.3324 13.1174 54.6151 11.3921C54.9544 9.63857 53.9648 8.33756 52.1553 8.62039Z" fill="currentColor"/>
<path d="M71.5597 22.0578C71.1639 22.7931 69.7502 23.6982 68.4213 23.6982C66.527 23.6982 65.2547 22.3406 65.6222 20.1345C65.7636 19.3426 66.1312 17.2214 66.4139 15.6092C66.838 13.2618 64.3216 14.082 63.7844 16.8537C63.1907 20.3042 62.6817 23.1325 62.6817 23.1325C62.6535 23.2456 62.5686 23.2739 62.5686 23.2739H58.1014C58.1014 23.2739 58.0166 23.2456 58.0448 23.1608C58.0448 23.1608 60.4198 9.07588 60.8722 6.55869C60.8722 6.47385 60.957 6.47385 60.957 6.47385H65.5657C65.5657 6.47385 65.6505 6.44556 65.6222 6.55869C65.3112 8.25567 64.8871 10.688 64.3782 13.6294C65.7353 11.7062 67.5166 10.9991 68.7323 10.9991C70.457 10.9991 71.6728 12.5264 71.2487 14.8456C71.0791 15.8355 70.9094 16.7406 70.6267 18.4941C69.9764 22.1992 71.899 21.4072 71.5597 22.0578Z" fill="currentColor"/>
<path d="M77.4642 23.8003C73.7037 23.8003 71.4418 20.972 72.0356 17.4367C72.6293 13.9296 75.9091 11.073 79.6695 11.073C83.4299 11.073 85.7201 13.9296 85.1264 17.4367C84.4761 20.972 81.2811 23.8003 77.4642 23.8003ZM77.8883 21.17C79.302 21.17 80.1219 19.5013 80.5177 17.4649C80.857 15.4569 80.5743 13.7599 79.2454 13.7599C77.86 13.7599 77.0118 15.4569 76.6442 17.4649C76.2767 19.4165 76.5311 21.17 77.8883 21.17Z" fill="currentColor"/>
<path d="M97.0771 20.0103C96.6247 21.0002 94.1931 23.7436 90.8003 23.7436C87.266 23.7436 84.9758 20.8871 85.5979 17.3517C86.1916 13.9295 89.3583 10.988 93.3732 10.988C97.2184 10.988 98.4342 13.3921 98.1515 15.0608C97.5012 18.7376 93.147 19.1618 90.1782 18.6527C90.5741 21.0002 93.6276 21.2265 96.766 19.6426C96.8791 19.5861 96.9922 19.5578 97.0771 19.6143C97.1336 19.6992 97.1619 19.8123 97.0771 20.0103ZM90.3196 16.6163C92.3836 16.8143 93.5428 16.0224 93.769 14.778C93.8821 14.1557 93.458 13.6184 92.7512 13.6466C92.7512 13.6466 92.7229 13.6749 92.6946 13.6749C92.6663 13.6749 92.6381 13.6749 92.6381 13.6749C92.4684 13.7032 92.2705 13.7598 92.0443 13.8729C91.1678 14.3537 90.6306 15.485 90.3196 16.6163Z" fill="currentColor"/>
<path d="M111.414 22.0752C111.018 22.8106 109.604 23.7156 108.304 23.7156C106.438 23.7156 105.109 22.358 105.476 20.152C105.618 19.36 105.985 17.2388 106.296 15.6267C106.692 13.2792 104.204 14.0994 103.667 16.8711C103.186 19.5297 102.564 23.1499 102.564 23.1499C102.536 23.2631 102.423 23.2914 102.423 23.2914H97.7576C97.7576 23.2914 97.6728 23.2631 97.7011 23.1782C97.7011 23.1782 98.832 17.861 99.1148 16.2206C99.7651 12.5156 98.0121 13.3075 98.3797 12.657C98.7472 11.9216 100.161 10.9883 101.462 10.9883C103.101 10.9883 104.204 12.0065 104.204 13.7317C105.589 11.7236 107.371 10.9883 108.615 10.9883C110.368 10.9883 111.584 12.5156 111.159 14.8348C110.99 15.8247 110.82 16.7297 110.509 18.4833C109.831 22.2166 111.781 21.4247 111.414 22.0752Z" fill="currentColor"/>
<path d="M116.675 23.2526H112.038C112.038 23.2526 111.953 23.2243 111.953 23.1395C111.953 23.1395 113.084 17.8223 113.367 16.1819C114.017 12.4768 112.321 13.2687 112.603 12.6182C112.999 11.8829 114.413 10.9495 115.742 10.9495C117.636 10.9495 118.767 12.3071 118.371 14.5132C118.032 16.3233 116.844 23.0829 116.844 23.0829C116.816 23.2243 116.675 23.2526 116.675 23.2526ZM116.166 10.3556C114.667 10.3556 113.621 9.39395 113.819 8.17779C114.017 6.9899 115.431 6 116.929 6C118.428 6 119.474 6.9899 119.276 8.17779C119.078 9.39395 117.664 10.3556 116.166 10.3556Z" fill="currentColor"/>
<path d="M131.127 23.115C131.155 23.1715 131.127 23.2564 131.042 23.2564C129.826 23.2564 127.168 23.2564 125.868 23.2564C125.783 23.2564 125.698 23.1998 125.67 23.1433L123.776 19.0988C121.683 19.6362 123.549 21.8988 123.493 22.1251C123.38 22.8887 122.079 23.7938 120.778 23.7938C118.912 23.7938 117.923 22.6625 118.149 21.0503C118.432 18.9857 119.902 17.7129 122.786 17.0624L119.93 11.6038C119.902 11.5473 119.987 11.4907 120.015 11.4907C121.316 11.4907 123.832 11.4907 125.076 11.4907C125.133 11.4907 125.217 11.5473 125.246 11.6038L127.168 15.5917C129.119 15.0543 127.281 12.9048 127.31 12.7351C127.423 11.9715 128.723 11.0947 130.024 11.0947C131.89 11.0947 132.936 12.3675 132.654 13.9796C132.314 15.7614 130.335 17.0059 128.13 17.4584L131.127 23.115Z" fill="currentColor"/>
<g clip-path="url(#clip0_1_932)">
<path d="M26.2204 28.9104C25.5469 28.9104 24.8286 28.6414 24.2898 28.1036C23.2122 27.0278 23.2122 25.3246 24.2898 24.2488C28.6 19.9459 28.6 12.9536 24.2898 8.6507C22.1796 6.54405 19.4408 5.42349 16.4776 5.42349C13.5143 5.42349 10.7306 6.58887 8.66531 8.6507C6.5551 10.7573 5.43265 13.4915 5.43265 16.4498C5.43265 19.408 6.6 22.187 8.66531 24.2488C9.74286 25.3246 9.74286 27.0278 8.66531 28.1036C7.58775 29.1793 5.88163 29.1793 4.80408 28.1036C1.70612 25.0108 0 20.8872 0 16.4498C0 12.0124 1.70612 7.93354 4.84898 4.79598C7.94694 1.70325 12.0776 0 16.4776 0C20.8776 0 25.0082 1.70325 28.151 4.8408C34.5714 11.2504 34.5714 21.694 28.151 28.1484C27.6122 28.6414 26.9388 28.9104 26.2204 28.9104Z" fill="#A7ADC4"/>
<path d="M21.3712 24.5178C20.6977 24.5178 19.9793 24.2488 19.4405 23.711C18.363 22.6352 18.363 20.932 19.4405 19.8562C20.2487 19.0494 20.6528 18.0185 20.6528 16.898C20.6528 15.7774 20.2038 14.7465 19.4405 13.9397C18.6324 13.1329 17.5997 12.7295 16.4773 12.7295C15.3548 12.7295 14.3222 13.1777 13.514 13.9397C12.7059 14.7465 12.3018 15.7774 12.3018 16.898C12.3018 18.0185 12.7507 19.0494 13.514 19.8562C14.5916 20.932 14.5916 22.6352 13.514 23.711C12.4365 24.7867 10.7303 24.7867 9.65279 23.711C7.85687 21.9181 6.82422 19.4977 6.82422 16.9428C6.82422 14.3879 7.81197 11.9675 9.65279 10.1746C11.4487 8.38174 13.8732 7.35083 16.4324 7.35083C18.9916 7.35083 21.4161 8.33692 23.212 10.1746C25.0079 11.9675 26.0405 14.3879 26.0405 16.9428C26.0405 19.4977 25.0528 21.9181 23.212 23.711C22.763 24.2488 22.0446 24.5178 21.3712 24.5178Z" fill="#A7ADC4"/>
<path d="M25.8603 6.45433C20.6072 1.61353 12.3909 1.61353 7.13785 6.45433C2.10928 11.1158 1.34602 18.6012 4.98275 24.0695C5.97051 25.5486 6.55418 27.207 6.73377 28.9551C7.45214 28.9551 8.17051 28.6862 8.70928 28.1483C9.78683 27.0726 9.78683 25.3693 8.70928 24.2936C4.39908 19.9907 4.39908 12.9984 8.70928 8.69545C10.8195 6.5888 13.5583 5.46824 16.5215 5.46824C19.4848 5.46824 22.2685 6.63362 24.3338 8.69545C28.644 12.9984 28.644 19.9907 24.3338 24.2936C23.2562 25.3693 23.2562 27.0726 24.3338 28.1483C24.8725 28.6862 25.546 28.9551 26.2644 28.9551H26.3093C26.4889 27.207 27.0725 25.5486 28.0603 24.0695C31.6072 18.6012 30.8889 11.1158 25.8603 6.45433Z" fill="currentColor"/>
<path d="M28.1505 4.88558C25.0526 1.79285 20.922 0.0895996 16.4771 0.0895996C12.0771 0.0895996 7.94644 1.79285 4.80359 4.9304C-1.61682 11.34 -1.61682 21.7836 4.80359 28.238C5.34236 28.7758 6.01583 29 6.6893 29.0448C6.50971 27.2967 5.92604 25.6383 4.93828 24.1592C1.34644 18.6908 2.06481 11.2055 7.09338 6.544C12.3464 1.7032 20.5628 1.7032 25.8158 6.544C30.8444 11.2055 31.6077 18.6908 27.9709 24.1592C26.9832 25.6383 26.3995 27.2967 26.2199 29.0448C26.8934 29.0448 27.5669 28.7758 28.1056 28.238C34.5709 21.7836 34.5709 11.34 28.1505 4.88558Z" fill="currentColor"/>
<path d="M21.058 11.8778C18.4988 9.59185 14.5478 9.59185 11.9437 11.8778C9.51923 13.9844 8.98045 17.3461 10.2825 20.0354C11.0009 21.4697 11.4498 23.0385 11.5845 24.6073C12.3029 24.6073 13.0213 24.3384 13.56 23.8005C14.6376 22.7248 14.6376 21.0215 13.56 19.9458C12.7519 19.139 12.3478 18.1081 12.3478 16.9875C12.3478 15.867 12.7968 14.8361 13.56 14.0292C15.1764 12.4156 17.8254 12.4156 19.4417 14.0292C21.058 15.6429 21.058 18.2874 19.4417 19.901C18.3641 20.9767 18.3641 22.6799 19.4417 23.7557C19.9805 24.2935 20.6539 24.5625 21.3723 24.5625H21.4172C21.5519 22.9937 22.0009 21.4249 22.7192 19.9906C24.0213 17.3461 23.4376 13.9844 21.058 11.8778Z" fill="#545454"/>
<path d="M23.2998 10.2643C19.5733 6.54406 13.4672 6.54406 9.69576 10.2643C7.89984 12.0572 6.86719 14.4776 6.86719 17.0325C6.86719 19.5873 7.85494 22.0077 9.69576 23.8006C10.2345 24.3385 10.908 24.5626 11.5815 24.6074C11.4468 23.0387 10.9978 21.4699 10.2794 20.0356C8.97739 17.3462 9.51617 13.9846 11.9407 11.8779C14.4998 9.59197 18.4509 9.59197 21.0549 11.8779C23.4794 13.9846 24.0182 17.3462 22.7162 20.0356C21.9978 21.4699 21.5488 23.0387 21.4141 24.6074C22.0876 24.6074 22.7611 24.3385 23.2998 23.8006C27.0264 20.0804 27.0264 13.9846 23.2998 10.2643Z" fill="currentColor"/>
</g>
<defs>
<clipPath id="clip0_1_932">
<rect width="33" height="29" fill="white"/>
</clipPath>
</defs>
</svg>