<svg width="145" height="29" viewBox="0 0 145 29" fill="none" xmlns="http://www.w3.org/2000/svg">
<path d="M57.9749 5.51502V9.02856C58.2948 8.48058 58.7746 8.0293 59.3824 7.67472C59.8942 7.38461 60.534 7.22344 61.3017 7.22344C62.6773 7.22344 63.7968 7.80366 64.6605 8.93186C65.5242 10.0923 65.9721 11.5751 65.9721 13.3802C65.9721 15.2176 65.5242 16.7003 64.6605 17.8285C64.2127 18.3765 63.6369 18.7956 62.9012 19.0535C62.1654 19.3113 61.4297 19.4403 60.694 19.4403C59.2865 19.4403 58.0069 19.0857 56.7914 18.3443C55.6078 17.6029 55 16.1846 55 14.1216V4H56.4715C56.8873 4 57.2392 4.16117 57.5271 4.45128C57.815 4.74139 57.9749 5.09597 57.9749 5.51502ZM62.9651 13.2513C62.9651 12.1875 62.7412 11.3817 62.2934 10.7692C61.8456 10.1568 61.2698 9.83442 60.502 9.83442C59.6703 9.83442 59.0625 10.1245 58.6147 10.7047C58.1669 11.3172 57.9429 12.1553 57.9429 13.219C57.9429 14.4439 58.1349 15.3465 58.5507 15.8945C58.9986 16.5069 59.6064 16.8293 60.3741 16.8293C61.1738 16.8293 61.8136 16.5069 62.2614 15.8945C62.7412 15.3143 62.9651 14.4439 62.9651 13.2513Z" fill="currentColor"/>
<path d="M67.2188 4.03394H68.7862C69.202 4.03394 69.5539 4.19511 69.8418 4.48522C70.1297 4.77533 70.2896 5.1299 70.2896 5.54895V6.48375H67.2188V4.03394ZM67.2188 7.48301H68.7862C69.202 7.48301 69.5539 7.64419 69.8418 7.93429C70.1297 8.2244 70.2896 8.57898 70.2896 8.99803V19.2163H67.2188V7.48301Z" fill="currentColor"/>
<path d="M71.793 19.2148V13.5093C71.793 12.3488 71.9529 11.414 72.3048 10.6082C72.6247 9.83456 73.1045 9.18987 73.6803 8.73859C74.2241 8.28731 74.8959 7.96497 75.6316 7.77156C76.3673 7.57816 77.1351 7.44922 77.9348 7.44922C77.9988 7.44922 78.0627 7.44922 78.1587 7.44922C78.2547 7.44922 78.3186 7.44922 78.3826 7.44922V10.576H77.391C76.5593 10.576 75.9195 10.7694 75.5036 11.1884C75.0878 11.6075 74.8959 12.2521 74.8959 13.1225V19.1503H71.793V19.2148Z" fill="currentColor"/>
<path d="M86.8292 4H88.3006C88.7165 4 89.0684 4.16117 89.3563 4.45128C89.6442 4.77362 89.8041 5.09597 89.8041 5.48278V14.0894C89.8041 16.1846 89.1963 17.5707 88.0127 18.3121C86.8292 19.0535 85.5176 19.408 84.1101 19.408C83.3424 19.408 82.6067 19.2791 81.8709 19.0212C81.1352 18.7633 80.5594 18.3765 80.1116 17.7963C79.2799 16.7003 78.832 15.2176 78.832 13.348C78.832 11.5106 79.2479 10.0278 80.1116 8.89962C80.9753 7.73919 82.0949 7.1912 83.4704 7.1912C84.2061 7.1912 84.8459 7.35237 85.3897 7.64248C85.9655 7.99706 86.4453 8.44834 86.7972 8.99633V4H86.8292ZM81.839 13.2513C81.839 14.4117 82.0629 15.3143 82.5107 15.9267C82.9586 16.5392 83.5663 16.8615 84.398 16.8615C85.1977 16.8615 85.8055 16.5392 86.2214 15.9267C86.6372 15.3143 86.8292 14.4117 86.8292 13.2513C86.8292 12.1875 86.6052 11.3494 86.1894 10.737C85.7096 10.1568 85.1018 9.86666 84.3021 9.86666C83.5343 9.86666 82.9586 10.189 82.5107 10.8015C82.0629 11.3817 81.839 12.1875 81.839 13.2513Z" fill="currentColor"/>
<path d="M103.369 19.2165H100.298L98.5064 10.8355L96.7151 19.2165H93.6442L90.4453 7.48315H93.4203L95.2436 15.6062L96.907 7.48315H100.01L101.577 15.6062L103.209 8.54689C103.369 7.83773 103.849 7.48315 104.616 7.48315H106.536L103.369 19.2165Z" fill="currentColor"/>
<path d="M107.43 4.03394H108.997C109.413 4.03394 109.765 4.19511 110.053 4.48522C110.341 4.77533 110.501 5.1299 110.501 5.54895V6.48375H107.43V4.03394ZM107.43 7.48301H108.997C109.413 7.48301 109.765 7.64419 110.053 7.93429C110.341 8.2244 110.501 8.57898 110.501 8.99803V19.2163H107.43V7.48301Z" fill="currentColor"/>
<path d="M121.859 19.2163H120.324C119.876 19.2163 119.524 19.0873 119.268 18.7972C118.98 18.5071 118.852 18.1526 118.852 17.7335V11.7057C118.852 10.9965 118.628 10.4808 118.212 10.1584C117.797 9.83608 117.317 9.67491 116.805 9.67491C116.293 9.67491 115.813 9.83608 115.397 10.1584C114.982 10.4808 114.79 10.9965 114.79 11.7057V19.1841H111.719V12.3181C111.719 10.3196 112.231 8.99799 113.286 8.32107C114.31 7.64414 115.461 7.28957 116.709 7.2251C117.989 7.2251 119.172 7.54744 120.26 8.22436C121.347 8.90129 121.891 10.2551 121.891 12.3181V19.2163H121.859Z" fill="currentColor"/>
<path d="M130.781 18.5071V17.7657C130.269 18.6038 129.565 19.0873 128.67 19.313C127.774 19.5064 126.91 19.4419 126.015 19.0873C125.151 18.7328 124.383 18.0881 123.775 17.1211C123.136 16.154 122.848 14.8969 122.848 13.3496C122.848 11.5445 123.264 10.0617 124.095 8.93352C124.927 7.80532 126.27 7.2251 128.094 7.2251C129.501 7.2251 130.781 7.61191 131.996 8.38554C133.18 9.15916 133.788 10.5452 133.788 12.6082V18.8295C133.788 20.8925 133.18 22.2785 131.996 23.0522C130.813 23.7936 129.501 24.1804 128.094 24.1804C125.407 24.1804 123.743 22.9232 123.104 20.3767H126.302C126.526 20.7958 126.878 21.1181 127.358 21.3115C127.838 21.5372 128.318 21.6016 128.798 21.4727C129.277 21.376 129.725 21.0859 130.109 20.6024C130.525 20.1511 130.749 19.4419 130.781 18.5071ZM125.823 13.4463C125.823 15.4771 126.398 16.6053 127.582 16.8309C128.734 17.0566 129.597 16.7665 130.173 16.0251C130.429 15.7027 130.621 15.187 130.749 14.5101C130.877 13.8331 130.877 13.124 130.781 12.4471C130.685 11.7701 130.429 11.1577 130.045 10.6419C129.661 10.1262 129.117 9.83608 128.382 9.83608C127.39 9.83608 126.718 10.1907 126.366 10.9321C125.983 11.6412 125.823 12.4793 125.823 13.4463Z" fill="currentColor"/>
<path d="M134.492 15.3159H137.467C137.499 15.8961 137.723 16.3474 138.139 16.6375C138.587 16.9276 139.163 17.0888 139.898 17.0888C140.41 17.0888 140.89 16.9921 141.242 16.7665C141.594 16.5731 141.754 16.283 141.754 15.9284C141.754 15.4126 141.146 14.9936 139.93 14.7357C139.418 14.639 139.003 14.5745 138.747 14.4778C137.211 14.091 136.156 13.6397 135.644 13.124C135.068 12.6082 134.78 11.8991 134.78 10.9965C134.78 9.86832 135.196 8.96575 136.06 8.22436C136.923 7.54744 138.075 7.2251 139.482 7.2251C140.986 7.2251 142.201 7.54744 143.097 8.22436C143.929 8.96575 144.409 9.90055 144.441 11.0932H142.553C142.009 11.0932 141.562 10.8353 141.274 10.3518C141.146 10.2229 141.05 10.1262 140.922 9.99725C140.57 9.73938 140.09 9.61044 139.482 9.61044C138.907 9.61044 138.459 9.70714 138.171 9.86832C137.915 10.0295 137.787 10.3196 137.787 10.6742C137.787 11.1577 138.555 11.5445 140.058 11.8668C140.218 11.9313 140.378 11.9636 140.506 11.9958C140.634 12.028 140.762 12.028 140.89 12.028C142.361 12.4148 143.417 12.8661 143.993 13.3496C144.537 13.8654 144.824 14.5745 144.824 15.4771C144.824 16.7665 144.345 17.7657 143.417 18.4749C142.553 19.1196 141.242 19.4419 139.482 19.4419C137.819 19.4419 136.571 19.1196 135.772 18.4427C134.94 17.7657 134.492 16.7987 134.492 15.4771V15.3159Z" fill="currentColor"/>
<path d="M46.434 2.18711C40.2695 -2.1462 29.407 -0.367787 24.7587 10.478C22.1984 16.4144 21.4776 25.5319 10.5156 28.5126C13.5482 28.4876 30.1278 30.291 36.0189 20.5974C40.0955 13.8345 36.3918 2.66303 46.434 2.18711Z" fill="#545454"/>
<path d="M0 12.5818C9.96767 -1.79574 30.2013 -3.04815 35.6947 9.77646C40.865 21.8747 30.6239 31.3428 10.4897 28.4873C19.0653 28.0615 27.7902 23.7032 24.9565 15.287C22.5453 8.04814 11.9065 5.81886 0 12.5818Z" fill="currentColor"/>
</svg>