<svg xmlns="http://www.w3.org/2000/svg" width="21" height="15" viewBox="0 0 21 15" fill="none" aria-hidden="true">
<path id="Vector" d="M20.7983 7.97827L13.8631 14.7628C13.614 15.0474 13.1762 15.0806 12.8853 14.8368C12.5943 14.5931 12.5604 14.1648 12.8096 13.8802C12.8329 13.8537 12.8581 13.8289 12.8853 13.8062L18.6345 8.17505H0.693503C0.310515 8.17505 0 7.87128 0 7.49656C0 7.12184 0.310515 6.81813 0.693503 6.81813H18.6345L12.8853 1.19377C12.5943 0.950055 12.5604 0.521748 12.8096 0.237163C13.0588 -0.0474224 13.4966 -0.0805969 13.7875 0.163175C13.8146 0.185913 13.8399 0.210634 13.8631 0.237163L20.7984 7.02173C21.0672 7.28626 21.0672 7.71363 20.7983 7.97827Z" fill="currentColor" aria-hidden="true"/>
</svg>